<svg width="64" height="64" viewBox="0 0 64 64" fill="none" xmlns="http://www.w3.org/2000/svg">
  <rect width="64" height="64" rx="16" fill="#047857"/>
  <path d="M42.2222 24.8889H45.7778C47.7415 24.8889 49.3333 26.4807 49.3333 28.4444V42.6667C49.3333 44.6304 47.7415 46.2222 45.7778 46.2222H18.2222C16.2585 46.2222 14.6667 44.6304 14.6667 42.6667V28.4444C14.6667 26.4807 16.2585 24.8889 18.2222 24.8889H21.7778M21.7778 24.8889V19.5556C21.7778 13.9101 26.3544 9.33334 32 9.33334C37.6456 9.33334 42.2222 13.9101 42.2222 19.5556V24.8889M21.7778 24.8889H42.2222" stroke="white" stroke-width="4" stroke-linecap="round" stroke-linejoin="round"/>
  <circle cx="25" cy="35" r="3" fill="white"/>
  <circle cx="39" cy="35" r="3" fill="white"/>
</svg>
